<svg width="567" height="132" viewBox="0 0 567 132" fill="none" xmlns="http://www.w3.org/2000/svg">
<g clip-path="url(#clip0_7_213)">
<rect width="14.4105" height="96.5278" transform="matrix(-0.704254 -0.709948 0.704254 -0.709948 -0.243408 146.891)" fill="url(#paint0_linear_7_213)"/>
<path d="M43.3816 66.519L53.5303 76.7498L30.9547 99.5079L20.8061 89.2771L43.3816 66.519Z" fill="white"/>
<path d="M95.7996 -11.4516L105.948 -1.22086L29.1998 76.1482L19.0511 65.9174L95.7996 -11.4516Z" fill="white"/>
<path d="M109.254 -10.5632L119.403 -0.332493L19.093 100.788L8.9443 90.5577L109.254 -10.5632Z" fill="url(#paint1_linear_7_213)"/>
<path d="M8.94385 90.5496L8.94385 105.018L112.547 105.018L112.547 90.5496L8.94385 90.5496Z" fill="url(#paint2_linear_7_213)"/>
<rect width="14.4105" height="110.656" transform="matrix(0.704254 0.709948 -0.704254 0.709948 81.3948 -14.6666)" fill="url(#paint3_linear_7_213)"/>
<rect x="3.46533" y="78.3616" width="14.4685" height="64.2715" transform="rotate(-90 3.46533 78.3616)" fill="url(#paint4_linear_7_213)"/>
</g>
<path fill-rule="evenodd" clip-rule="evenodd" d="M145.114 38.5843C140.883 39.0117 138.212 40.1429 135.584 42.6209C131.248 46.7087 129.273 52.7718 130.551 58.0663C131.426 61.6918 132.621 63.9367 135.003 66.4265C137.005 68.52 139.214 69.7773 142.886 70.9131C144.235 71.3305 144.375 71.3336 167.592 71.4404C193.759 71.5608 191.979 71.456 193.911 72.9899C195.793 74.4838 196.514 76.8915 195.752 79.1412C195.298 80.4812 193.633 82.1251 192.103 82.7436L190.942 83.2131L161.779 83.3103C145.202 83.3656 132.449 83.4831 132.228 83.5823C130.543 84.3421 130 85.5081 130 88.3684C130 91.7102 130.691 92.9766 132.759 93.4255C133.504 93.587 141.875 93.6284 163.813 93.5792C197.49 93.5037 194.816 93.6234 197.816 92.0563C201.58 90.0899 204.654 86.4484 206.102 82.2402C206.607 80.7713 206.637 80.4921 206.637 77.2789C206.637 73.9579 206.623 73.8322 206.032 72.1757C205.193 69.822 204.092 68.0511 202.254 66.1012C200.386 64.1205 198.431 62.7572 196.234 61.9039C193.21 60.7297 193.799 60.7552 169.42 60.7478C154.234 60.7431 146.757 60.6735 145.974 60.5295C142.742 59.9353 140.659 57.4248 140.9 54.4132C141.12 51.6589 143.262 49.4468 146.262 48.8755C146.933 48.7477 157.212 48.6776 175.418 48.6769C194.442 48.6763 203.774 48.6099 204.269 48.4718C205.272 48.192 206.234 47.2924 206.507 46.3787C206.632 45.9598 206.734 44.6171 206.734 43.3949C206.734 41.4737 206.675 41.0564 206.298 40.3157C205.611 38.9643 205.113 38.7104 202.816 38.5378C200.099 38.3335 147.173 38.3763 145.114 38.5843ZM238.155 38.5623C236.989 38.8106 236.175 39.3302 235.71 40.1241C235.322 40.7875 235.315 41.0903 235.264 59.2354C235.207 79.2519 235.227 79.7166 236.274 83.044C237.611 87.2934 242.034 91.6032 246.514 93.0214L248.105 93.5249H273.489C301.849 93.5249 299.756 93.6234 302.751 92.1499C306.756 90.18 310.277 85.9223 311.268 81.8511C311.847 79.4747 311.91 76.8197 311.811 59.0051C311.703 39.4536 311.752 40.2476 310.598 39.2726C309.825 38.6193 309.022 38.4635 306.431 38.4636C303.815 38.464 302.934 38.8248 302.292 40.1595C301.897 40.9807 301.89 41.2549 301.827 59.0872C301.768 75.5558 301.733 77.2717 301.43 78.1849C300.753 80.229 298.998 82.099 297.033 82.8702C296.222 83.1885 294.627 83.2164 274.286 83.2662C260.703 83.2996 252.024 83.2483 251.392 83.1309C249.1 82.7054 247.248 81.2991 246.297 79.2626L245.78 78.1544L245.683 59.5736L245.586 40.9928L245.156 40.1863C244.509 38.9715 243.459 38.5352 240.975 38.4506C239.888 38.4134 238.619 38.4636 238.155 38.5623ZM342.696 38.65C341.715 39.0014 341.097 39.6077 340.726 40.5846C340.456 41.2938 340.429 43.5503 340.483 60.8386C340.544 80.0847 340.549 80.3108 340.962 81.7818C342.212 86.2268 345.449 90.1057 349.691 92.24C352.413 93.6099 350.139 93.5249 384.037 93.5249H414.556L415.235 93.1006C416.427 92.3548 416.675 91.6917 416.753 89.0435C416.831 86.422 416.632 85.3717 415.893 84.4898C414.859 83.2553 416.285 83.3103 385.385 83.3103C367.23 83.3103 356.984 83.2407 356.312 83.1129C354.009 82.6741 352.278 81.2984 351.226 79.069L350.611 77.7653L350.514 59.2817C350.425 42.2168 350.392 40.7509 350.081 40.1813C349.665 39.417 348.911 38.8656 347.898 38.5839C346.821 38.2843 343.604 38.3251 342.696 38.65ZM558.169 38.6397C557.135 39.0255 556.384 39.8061 556.121 40.7663C555.959 41.3593 555.915 48.2529 555.955 66.4806C556.01 90.9826 556.017 91.3954 556.399 92.0466C557.051 93.1617 557.998 93.5125 560.57 93.5918C561.911 93.6331 563.145 93.5683 563.659 93.4294C564.731 93.1393 565.696 92.1896 565.975 91.1495C566.127 90.5854 566.174 83.173 566.138 65.6734C566.088 41.0901 566.086 40.9897 565.684 40.2145C565.424 39.7135 564.975 39.2656 564.424 38.9571C563.671 38.5352 563.29 38.4708 561.243 38.4191C559.574 38.3769 558.706 38.4391 558.169 38.6397ZM452.052 38.8144C450.404 39.1956 449.211 39.9001 447.985 41.215C446.707 42.5874 445.982 43.9795 445.675 45.6495C445.53 46.4411 445.463 53.7482 445.463 68.9072V91.0104L445.899 91.874C446.579 93.2198 447.263 93.5117 449.925 93.5926C452.35 93.6664 453.443 93.47 454.278 92.8107C455.484 91.8583 455.433 92.592 455.54 74.5266C455.633 58.6784 455.65 58.0424 456.006 57.6482C456.257 57.3698 456.609 57.2388 457.106 57.2388C458.199 57.2388 458.813 57.9665 461.543 62.492C468.305 73.7038 476.362 86.7874 477.863 88.9924C480.204 92.4311 482.369 93.6096 486.362 93.6189C489.652 93.6265 491.246 93.0076 493.341 90.91C495.324 88.9245 495.581 88.5311 504.077 74.4577C506.015 71.2474 508.299 67.5264 509.153 66.1887C510.006 64.8511 511.295 62.7498 512.016 61.5192C513.713 58.6212 514.084 58.142 514.944 57.7322C515.509 57.4632 515.754 57.4373 516.127 57.6079C517.172 58.0858 517.16 57.8807 517.161 74.792C517.161 85.5303 517.228 90.6522 517.374 91.181C517.646 92.1645 518.611 93.1335 519.591 93.4064C520.723 93.7222 524.081 93.6751 525.248 93.3272C526.391 92.9866 527.123 92.2361 527.43 91.0911C527.569 90.5718 527.617 83.3016 527.58 68.2875L527.526 46.246L526.996 44.6764C526.058 41.8991 524.303 39.9927 521.874 39.115C521.016 38.8049 520.278 38.7055 518.807 38.7022C516.531 38.6969 515.29 39.0866 513.616 40.3317C511.745 41.7236 510.927 42.9623 500.067 60.8383C498.572 63.2995 496.546 66.5827 495.565 68.1344C494.584 69.686 492.741 72.694 491.47 74.8186C488.176 80.3257 487.297 81.1937 485.708 80.5108C484.566 80.0203 484.087 79.3175 477.67 68.7181C476.018 65.9893 472.746 60.6486 470.398 56.8497C468.051 53.0508 465.214 48.4543 464.095 46.6351C460.848 41.3601 459.564 39.967 457.176 39.124C455.794 38.6366 453.437 38.4942 452.052 38.8144Z" fill="white"/>
<defs>
<linearGradient id="paint0_linear_7_213" x1="7.20527" y1="0" x2="7.20527" y2="96.5278" gradientUnits="userSpaceOnUse">
<stop stop-color="#A43837"/>
<stop offset="1" stop-color="#3E1515"/>
</linearGradient>
<linearGradient id="paint1_linear_7_213" x1="114.328" y1="-5.44786" x2="13.2108" y2="94.8587" gradientUnits="userSpaceOnUse">
<stop stop-color="#598B57"/>
<stop offset="1" stop-color="#285A26"/>
</linearGradient>
<linearGradient id="paint2_linear_7_213" x1="8.94385" y1="97.7838" x2="112.547" y2="97.7838" gradientUnits="userSpaceOnUse">
<stop stop-color="#598B57"/>
<stop offset="1" stop-color="#285A26"/>
</linearGradient>
<linearGradient id="paint3_linear_7_213" x1="7.20527" y1="0" x2="7.20527" y2="110.656" gradientUnits="userSpaceOnUse">
<stop stop-color="#A43837"/>
<stop offset="1" stop-color="#3E1515"/>
</linearGradient>
<linearGradient id="paint4_linear_7_213" x1="10.6996" y1="78.3616" x2="10.6996" y2="142.633" gradientUnits="userSpaceOnUse">
<stop stop-color="#A43837"/>
<stop offset="1" stop-color="#3E1515"/>
</linearGradient>
<clipPath id="clip0_7_213">
<rect width="106" height="132" fill="white"/>
</clipPath>
</defs>
</svg>
