<svg width="49" height="48" viewBox="0 0 49 48" fill="none" xmlns="http://www.w3.org/2000/svg">
<path d="M0 48L24.1062 23.9571L27.7049 27.5464L7.19757 48H0Z" fill="url(#paint0_linear_27_702)"/>
<path d="M41.8727 2.24131e-07L14.9302 26.7699L11.3315 23.1805L34.5729 1.28941e-07L41.8727 2.24131e-07Z" fill="white"/>
<path d="M49 0.0109554L13.425 35.4146L9.82623 31.8253L41.7242 0.0109554H49Z" fill="url(#paint1_linear_27_702)"/>
<path d="M9.82605 31.8224L9.82606 36.8985L46.5644 36.8985V31.8224L9.82605 31.8224Z" fill="url(#paint2_linear_27_702)"/>
<path d="M34.5969 0L8.51265 26.0596L4.91387 22.4703L27.4432 0H34.5969Z" fill="url(#paint3_linear_27_702)"/>
<path d="M4.91397 27.5464L4.91387 22.4703L27.7051 22.4703L27.7049 27.5464L4.91397 27.5464Z" fill="url(#paint4_linear_27_702)"/>
<defs>
<linearGradient id="paint0_linear_27_702" x1="24.5" y1="0" x2="24.5" y2="48" gradientUnits="userSpaceOnUse">
<stop stop-color="#A43837"/>
<stop offset="1" stop-color="#3E1515"/>
</linearGradient>
<linearGradient id="paint1_linear_27_702" x1="24.2363" y1="-0.0467504" x2="24.2363" y2="48" gradientUnits="userSpaceOnUse">
<stop stop-color="#598B57"/>
<stop offset="1" stop-color="#285A26"/>
</linearGradient>
<linearGradient id="paint2_linear_27_702" x1="24.5" y1="0" x2="24.5" y2="48" gradientUnits="userSpaceOnUse">
<stop stop-color="#598B57"/>
<stop offset="1" stop-color="#285A26"/>
</linearGradient>
<linearGradient id="paint3_linear_27_702" x1="24.4997" y1="-2.80966" x2="24.4997" y2="48" gradientUnits="userSpaceOnUse">
<stop stop-color="#A43837"/>
<stop offset="1" stop-color="#3E1515"/>
</linearGradient>
<linearGradient id="paint4_linear_27_702" x1="4.91395" y1="25.0083" x2="27.705" y2="25.0083" gradientUnits="userSpaceOnUse">
<stop stop-color="#A43837"/>
<stop offset="1" stop-color="#3E1515"/>
</linearGradient>
</defs>
</svg>
