<svg width="812" height="127" viewBox="0 0 812 127" fill="none" xmlns="http://www.w3.org/2000/svg">
<path fill-rule="evenodd" clip-rule="evenodd" d="M0 47.509V95.0166L61.75 94.7596L123.5 94.5016L123.781 82.2514L124.062 70.0013H81.031H38V64.5122V59.0221L80.75 58.7621L123.5 58.5011V47.001V35.5008L80.75 35.2398L38 34.9798V30.0008V25.0217L80.75 24.7617L123.5 24.5007L123.781 12.2505L124.062 0.000396952H62.031H0V47.509ZM144 47.547V95.0946L200.25 94.7976C263.754 94.4636 260.301 94.8846 268.478 86.4715C274.279 80.5024 276.502 73.5313 275.691 63.8542C275.042 56.1191 274.101 53.9011 269.353 48.929L265.942 45.357L268.677 40.4629C270.911 36.4649 271.402 34.3668 271.352 29.0098C271.274 20.4306 268.567 14.3906 261.964 8.0595C253.355 -0.194605 254.958 0.000396952 195.822 0.000396952H144V47.547ZM394.264 1.80442C384.341 5.77647 376.963 13.4996 373.535 23.5007C371.275 30.0938 370.335 52.8361 371.901 63.0012C374.037 76.8634 380.821 86.2145 392.825 91.8415L398.5 94.5016H444.021H489.542L496.206 91.2205C504.347 87.2125 511.007 80.1514 514.141 72.2033C516.177 67.0392 516.394 64.7542 516.44 48.001C516.48 33.2108 516.145 28.3827 514.768 23.9237C512.667 17.1236 507.474 10.1105 501.492 5.99447C492.733 -0.0316033 492.994 -0.00460321 443.624 0.0543975C403.614 0.103398 398.02 0.301401 394.264 1.80442ZM534 47.523V95.0456L552.75 94.7736L571.5 94.5016L572 67.1912L572.5 39.8799L597.492 67.4412L622.484 95.0016H644.742H667V47.501V0.000396952H648.016H629.032L628.766 27.1117L628.5 54.2231L604.025 27.1117L579.551 0.000396952H556.775H534V47.523ZM687 47.509V95.0166L748.75 94.7596L810.5 94.5016L810.781 82.2514L811.062 70.0013H768.031H725V64.5122V59.0221L767.75 58.7621L810.5 58.5011V47.001V35.5008L767.75 35.2398L725 34.9798V30.0008V25.0217L767.75 24.7617L810.5 24.5007L810.781 12.2505L811.062 0.000396952H749.031H687V47.509ZM229.545 24.4557C231.093 26.0027 232 28.0527 232 30.0008C232 31.9488 231.093 33.9988 229.545 35.5458L227.091 38.0009H204.545H182V30.0008V22.0007H204.545H227.091L229.545 24.4557ZM469.966 27.7527C475.882 30.7368 477.501 34.8758 477.494 47.001C477.486 58.9611 476.398 62.1492 471.102 65.7142C467.799 67.9372 467.04 68.0012 444 68.0012C420.96 68.0012 420.201 67.9372 416.898 65.7142C411.671 62.1952 410.574 58.9701 410.535 47.001C410.495 34.8748 412.104 30.7438 418.034 27.7527C423.215 25.1387 464.785 25.1387 469.966 27.7527ZM288.68 38.6549C288.306 39.0289 288 43.0839 288 47.668V56.0011H323.039H358.078L357.789 47.251L357.5 38.5009L323.43 38.2379C304.691 38.0929 289.053 38.2809 288.68 38.6549ZM234.036 58.5911C236.92 61.4772 236.894 66.4212 233.979 69.5243L231.651 72.0013H206.826H182V63.9522V55.9031L206.974 56.2021C230.765 56.4871 232.047 56.6001 234.036 58.5911Z" fill="white"/>
<rect x="0.258545" y="114.032" width="123" height="12" fill="#D63C3A"/>
</svg>
