<svg width="1622" height="191" viewBox="0 0 1622 191" fill="none" xmlns="http://www.w3.org/2000/svg">
<path fill-rule="evenodd" clip-rule="evenodd" d="M0 94.9939V189.985L123.469 189.471L246.937 188.955L247.499 164.461L248.061 139.967H162.021H75.9807V128.992V118.014L161.459 117.494L246.937 116.973V93.9781V70.9837L161.459 70.4618L75.9807 69.9419V59.9863V50.0307L161.459 49.5109L246.937 48.989L247.499 24.4949L248.061 0.000793702H124.031H0V94.9939ZM287.927 95.0699V190.141L400.398 189.547C527.374 188.879 520.47 189.721 536.82 172.899C548.419 160.964 552.864 147.025 551.242 127.676C549.945 112.21 548.063 107.775 538.569 97.8332L531.749 90.6909L537.218 80.9053C541.685 72.9112 542.666 68.7162 542.566 58.0048C542.41 40.8509 536.998 28.7739 523.795 16.1149C506.582 -0.389112 509.787 0.000793702 391.545 0.000793702H287.927V95.0699ZM788.328 3.60792C768.487 11.55 753.735 26.9923 746.881 46.9895C742.362 60.1723 740.482 105.645 743.613 125.97C747.884 153.688 761.449 172.385 785.451 183.637L796.798 188.955H887.817H978.836L992.16 182.395C1008.44 174.381 1021.75 160.262 1028.02 144.37C1032.09 134.044 1032.53 129.476 1032.62 95.9776C1032.7 66.4048 1032.03 56.7511 1029.28 47.8353C1025.07 34.2385 1014.69 20.2159 1002.73 11.9859C985.216 -0.0631905 985.738 -0.00920408 887.023 0.108767C807.023 0.206744 795.838 0.602648 788.328 3.60792ZM1067.73 95.0219V190.043L1105.22 189.499L1142.71 188.955L1143.71 134.348L1144.71 79.7396L1194.68 134.848L1244.65 189.955H1289.16H1333.66V94.9779V0.000793702H1295.7H1257.75L1257.21 54.2097L1256.68 108.419L1207.74 54.2097L1158.81 0.000793702H1113.27H1067.73V95.0219ZM1373.65 94.9939V189.985L1497.12 189.471L1620.59 188.955L1621.15 164.461L1621.71 139.967H1535.67H1449.63V128.992V118.014L1535.11 117.494L1620.59 116.973V93.9781V70.9837L1535.11 70.4618L1449.63 69.9419V59.9863V50.0307L1535.11 49.5109L1620.59 48.989L1621.15 24.4949L1621.71 0.000793702H1497.68H1373.65V94.9939ZM458.974 48.899C462.069 51.9923 463.882 56.0913 463.882 59.9863C463.882 63.8814 462.069 67.9804 458.974 71.0736L454.067 75.9825H408.986H363.908V59.9863V43.9902H408.986H454.067L458.974 48.899ZM939.694 55.4914C951.523 61.458 954.76 69.734 954.746 93.9781C954.73 117.892 952.555 124.267 941.965 131.395C935.361 135.84 933.843 135.968 887.775 135.968C841.707 135.968 840.189 135.84 833.585 131.395C823.133 124.359 820.94 117.91 820.862 93.9781C820.782 69.732 823.999 61.472 835.856 55.4914C846.215 50.2647 929.334 50.2647 939.694 55.4914ZM577.214 77.2902C576.466 78.038 575.854 86.146 575.854 95.3118V111.974H645.914H715.975L715.397 94.478L714.819 76.9822L646.696 76.4564C609.228 76.1664 577.959 76.5423 577.214 77.2902ZM467.953 117.153C473.72 122.923 473.668 132.809 467.839 139.013L463.185 143.966H413.547H363.908V127.872V111.778L413.843 112.376C461.413 112.946 463.976 113.171 467.953 117.153Z" fill="white"/>
</svg>
