<svg width="32" height="32" viewBox="0 0 32 32" fill="none" xmlns="http://www.w3.org/2000/svg">
<g clip-path="url(#clip0_7_109)">
<rect width="32" height="32" fill="url(#paint0_linear_7_109)"/>
<rect x="3.3064" y="35.0853" width="3.4276" height="22.9595" transform="rotate(-135 3.3064 35.0853)" fill="url(#paint1_linear_7_109)"/>
<path d="M13.7249 16.0449L16.1485 18.4686L10.7571 23.86L8.33344 21.4363L13.7249 16.0449Z" fill="white"/>
<path d="M26.2432 -2.42639L28.6668 -0.00271588L10.338 18.3261L7.91434 15.9024L26.2432 -2.42639Z" fill="white"/>
<path d="M29.4563 -2.21594L31.88 0.207733L7.92428 24.1634L5.50061 21.7398L29.4563 -2.21594Z" fill="url(#paint2_linear_7_109)"/>
<path d="M5.50049 21.7378L5.50049 25.1654L30.2427 25.1654L30.2427 21.7378L5.50049 21.7378Z" fill="url(#paint3_linear_7_109)"/>
<rect x="22.803" y="-3.18805" width="3.4276" height="26.3198" transform="rotate(45 22.803 -3.18805)" fill="url(#paint4_linear_7_109)"/>
<rect x="4.19214" y="18.8505" width="3.4276" height="15.3491" transform="rotate(-90 4.19214 18.8505)" fill="url(#paint5_linear_7_109)"/>
</g>
<defs>
<linearGradient id="paint0_linear_7_109" x1="16" y1="0" x2="16" y2="32" gradientUnits="userSpaceOnUse">
<stop stop-color="#181C21"/>
<stop offset="1"/>
</linearGradient>
<linearGradient id="paint1_linear_7_109" x1="5.02019" y1="35.0853" x2="5.02019" y2="58.0447" gradientUnits="userSpaceOnUse">
<stop stop-color="#A43837"/>
<stop offset="1" stop-color="#3E1515"/>
</linearGradient>
<linearGradient id="paint2_linear_7_109" x1="30.6681" y1="-1.0041" x2="6.71244" y2="22.9516" gradientUnits="userSpaceOnUse">
<stop stop-color="#598B57"/>
<stop offset="1" stop-color="#285A26"/>
</linearGradient>
<linearGradient id="paint3_linear_7_109" x1="5.50049" y1="23.4516" x2="30.2427" y2="23.4516" gradientUnits="userSpaceOnUse">
<stop stop-color="#598B57"/>
<stop offset="1" stop-color="#285A26"/>
</linearGradient>
<linearGradient id="paint4_linear_7_109" x1="24.5168" y1="-3.18805" x2="24.5168" y2="23.1318" gradientUnits="userSpaceOnUse">
<stop stop-color="#A43837"/>
<stop offset="1" stop-color="#3E1515"/>
</linearGradient>
<linearGradient id="paint5_linear_7_109" x1="5.90594" y1="18.8505" x2="5.90594" y2="34.1996" gradientUnits="userSpaceOnUse">
<stop stop-color="#A43837"/>
<stop offset="1" stop-color="#3E1515"/>
</linearGradient>
<clipPath id="clip0_7_109">
<rect width="32" height="32" fill="white"/>
</clipPath>
</defs>
</svg>
