<svg width="175" height="48" viewBox="0 0 175 48" fill="none" xmlns="http://www.w3.org/2000/svg">
<rect width="4.28147" height="28.6791" transform="matrix(-0.704254 -0.709948 0.704254 -0.709948 3.01538 48)" fill="url(#paint0_linear_9_215)"/>
<path d="M15.9763 24.1208L18.9916 27.1604L12.2842 33.922L9.26898 30.8824L15.9763 24.1208Z" fill="white"/>
<path d="M31.5503 0.955261L34.5655 3.99488L11.7631 26.9818L8.74781 23.9421L31.5503 0.955261Z" fill="white"/>
<path d="M35.5479 1.21912L38.5631 4.25874L8.76035 34.3025L5.74511 31.2629L35.5479 1.21912Z" fill="url(#paint1_linear_9_215)"/>
<path d="M5.74463 31.2604L5.74463 35.5591L36.5259 35.5591L36.5259 31.2604L5.74463 31.2604Z" fill="url(#paint2_linear_9_215)"/>
<rect width="4.28147" height="32.8765" transform="matrix(0.704254 0.709948 -0.704254 0.709948 27.2705 0)" fill="url(#paint3_linear_9_215)"/>
<rect x="4.11694" y="27.6393" width="4.29868" height="19.0955" transform="rotate(-90 4.11694 27.6393)" fill="url(#paint4_linear_9_215)"/>
<path fill-rule="evenodd" clip-rule="evenodd" d="M49.5218 15.8212C48.2645 15.9482 47.4711 16.2843 46.6902 17.0206C45.4022 18.2351 44.8152 20.0365 45.1949 21.6095C45.4549 22.6867 45.8101 23.3536 46.5176 24.0934C47.1126 24.7154 47.7688 25.0889 48.8598 25.4264C49.2604 25.5504 49.3023 25.5513 56.2001 25.583C63.9745 25.6188 63.4455 25.5877 64.0198 26.0434C64.5789 26.4872 64.793 27.2026 64.5666 27.871C64.4318 28.2691 63.9371 28.7575 63.4825 28.9413L63.1375 29.0808L54.473 29.1097C49.5479 29.1261 45.7588 29.161 45.6933 29.1905C45.1926 29.4162 45.0312 29.7626 45.0312 30.6125C45.0312 31.6053 45.2365 31.9816 45.851 32.115C46.0723 32.1629 48.5595 32.1752 55.0775 32.1606C65.083 32.1382 64.2886 32.1737 65.1798 31.7082C66.2983 31.1239 67.2115 30.042 67.6417 28.7917C67.7918 28.3553 67.8008 28.2723 67.8008 27.3177C67.8008 26.331 67.7963 26.2936 67.6209 25.8015C67.3717 25.1022 67.0444 24.576 66.4983 23.9967C65.9434 23.4082 65.3626 23.0032 64.7097 22.7497C63.8115 22.4008 63.9865 22.4084 56.7432 22.4062C52.2313 22.4048 50.0097 22.3841 49.7771 22.3413C48.8169 22.1648 48.1981 21.4189 48.2696 20.5241C48.335 19.7058 48.9715 19.0486 49.8627 18.8788C50.0622 18.8409 53.116 18.8201 58.5252 18.8198C64.1773 18.8197 66.95 18.7999 67.0971 18.7589C67.3952 18.6758 67.681 18.4085 67.762 18.137C67.7991 18.0126 67.8295 17.6136 67.8295 17.2505C67.8295 16.6797 67.812 16.5557 67.7 16.3357C67.4957 15.9341 67.3478 15.8587 66.6653 15.8074C65.8581 15.7467 50.1336 15.7595 49.5218 15.8212ZM77.1649 15.8147C76.8183 15.8885 76.5765 16.0429 76.4385 16.2787C76.3232 16.4758 76.3211 16.5658 76.3058 21.9568C76.2889 27.9039 76.2948 28.0419 76.6059 29.0305C77.0032 30.2931 78.3174 31.5735 79.6484 31.9949L80.1211 32.1445H87.6629C96.0887 32.1445 95.4668 32.1737 96.3568 31.736C97.5467 31.1507 98.5928 29.8857 98.8873 28.6761C99.0591 27.9701 99.0779 27.1813 99.0486 21.8884C99.0166 16.0795 99.0311 16.3154 98.6882 16.0258C98.4585 15.8317 98.2198 15.7853 97.4501 15.7854C96.6728 15.7855 96.4112 15.8927 96.2204 16.2892C96.1029 16.5332 96.101 16.6147 96.0822 21.9128C96.0648 26.8057 96.0542 27.3155 95.9644 27.5869C95.7631 28.1942 95.2417 28.7498 94.6578 28.9789C94.417 29.0735 93.9431 29.0817 87.8996 29.0965C83.8641 29.1065 81.2855 29.0912 81.0976 29.0564C80.4167 28.9299 79.8664 28.5121 79.5839 27.9071L79.4302 27.5778L79.4014 22.0573L79.3726 16.5368L79.245 16.2972C79.0528 15.9363 78.7406 15.8067 78.0028 15.7815C77.6796 15.7705 77.3026 15.7854 77.1649 15.8147ZM108.225 15.8408C107.933 15.9452 107.75 16.1253 107.639 16.4156C107.559 16.6263 107.551 17.2967 107.567 22.4332C107.585 28.1513 107.587 28.2185 107.71 28.6555C108.081 29.9762 109.043 31.1286 110.303 31.7627C111.112 32.1697 110.436 32.1445 120.507 32.1445H129.575L129.776 32.0184C130.131 31.7968 130.204 31.5998 130.228 30.813C130.251 30.0342 130.192 29.7221 129.972 29.4601C129.665 29.0933 130.088 29.1097 120.908 29.1097C115.514 29.1097 112.47 29.089 112.27 29.051C111.586 28.9206 111.072 28.5119 110.759 27.8495L110.576 27.4622L110.548 21.9706C110.521 16.9005 110.511 16.465 110.419 16.2957C110.295 16.0687 110.071 15.9048 109.77 15.8211C109.45 15.7321 108.494 15.7442 108.225 15.8408ZM172.243 15.8377C171.936 15.9524 171.713 16.1843 171.635 16.4695C171.587 16.6457 171.574 18.6939 171.586 24.1094C171.602 31.3891 171.604 31.5118 171.717 31.7053C171.911 32.0366 172.193 32.1408 172.957 32.1644C173.355 32.1766 173.722 32.1574 173.874 32.1161C174.193 32.0299 174.48 31.7478 174.563 31.4387C174.607 31.2712 174.622 29.0689 174.611 23.8696C174.596 16.5657 174.595 16.5359 174.476 16.3056C174.399 16.1568 174.265 16.0237 174.102 15.932C173.878 15.8067 173.765 15.7875 173.157 15.7722C172.661 15.7596 172.403 15.7781 172.243 15.8377ZM140.715 15.8896C140.225 16.0029 139.871 16.2122 139.507 16.6028C139.127 17.0106 138.912 17.4242 138.821 17.9204C138.777 18.1556 138.758 20.3265 138.758 24.8304V31.3974L138.887 31.654C139.089 32.0538 139.292 32.1406 140.083 32.1646C140.804 32.1865 141.128 32.1282 141.377 31.9323C141.735 31.6493 141.72 31.8673 141.751 26.5C141.779 21.7914 141.784 21.6024 141.89 21.4853C141.964 21.4025 142.069 21.3636 142.217 21.3636C142.541 21.3636 142.724 21.5798 143.535 22.9244C145.544 26.2555 147.938 30.1427 148.384 30.7978C149.079 31.8195 149.723 32.1696 150.909 32.1724C151.886 32.1747 152.36 31.9908 152.982 31.3676C153.571 30.7777 153.648 30.6608 156.172 26.4795C156.748 25.5257 157.426 24.4201 157.68 24.0227C157.934 23.6253 158.316 23.001 158.531 22.6354C159.035 21.7744 159.145 21.632 159.401 21.5102C159.569 21.4303 159.642 21.4226 159.752 21.4733C160.063 21.6153 160.059 21.5543 160.059 26.5788C160.06 29.7692 160.079 31.291 160.123 31.4481C160.204 31.7403 160.49 32.0282 160.781 32.1093C161.118 32.2031 162.116 32.1891 162.462 32.0858C162.802 31.9845 163.019 31.7616 163.11 31.4214C163.152 31.2671 163.166 29.1071 163.155 24.6463L163.139 18.0976L162.982 17.6313C162.703 16.8061 162.181 16.2397 161.46 15.9789C161.205 15.8868 160.986 15.8573 160.548 15.8563C159.872 15.8547 159.504 15.9705 159.006 16.3404C158.45 16.7539 158.207 17.122 154.981 22.4331C154.536 23.1643 153.935 24.1398 153.643 24.6008C153.352 25.0618 152.804 25.9555 152.427 26.5867C151.448 28.2229 151.187 28.4808 150.714 28.2779C150.375 28.1322 150.233 27.9234 148.326 24.7742C147.835 23.9635 146.863 22.3767 146.166 21.248C145.469 20.1194 144.626 18.7537 144.293 18.2132C143.328 16.646 142.947 16.2321 142.237 15.9816C141.827 15.8368 141.126 15.7945 140.715 15.8896Z" fill="url(#paint5_linear_9_215)"/>
<defs>
<linearGradient id="paint0_linear_9_215" x1="2.14073" y1="0" x2="2.14073" y2="28.6791" gradientUnits="userSpaceOnUse">
<stop stop-color="#A43837"/>
<stop offset="1" stop-color="#3E1515"/>
</linearGradient>
<linearGradient id="paint1_linear_9_215" x1="37.0555" y1="2.73893" x2="7.0127" y2="32.5407" gradientUnits="userSpaceOnUse">
<stop stop-color="#598B57"/>
<stop offset="1" stop-color="#285A26"/>
</linearGradient>
<linearGradient id="paint2_linear_9_215" x1="5.74463" y1="33.4098" x2="36.5259" y2="33.4098" gradientUnits="userSpaceOnUse">
<stop stop-color="#598B57"/>
<stop offset="1" stop-color="#285A26"/>
</linearGradient>
<linearGradient id="paint3_linear_9_215" x1="2.14073" y1="0" x2="2.14073" y2="32.8765" gradientUnits="userSpaceOnUse">
<stop stop-color="#A43837"/>
<stop offset="1" stop-color="#3E1515"/>
</linearGradient>
<linearGradient id="paint4_linear_9_215" x1="6.26628" y1="27.6393" x2="6.26628" y2="46.7348" gradientUnits="userSpaceOnUse">
<stop stop-color="#A43837"/>
<stop offset="1" stop-color="#3E1515"/>
</linearGradient>
<linearGradient id="paint5_linear_9_215" x1="109.823" y1="15.7609" x2="109.823" y2="32.1724" gradientUnits="userSpaceOnUse">
<stop stop-color="#181C21"/>
<stop offset="1"/>
</linearGradient>
</defs>
</svg>
