<svg width="210" height="48" viewBox="0 0 210 48" fill="none" xmlns="http://www.w3.org/2000/svg">
<path d="M0.124512 48L24.2307 23.9571L27.8295 27.5464L7.32208 48H0.124512Z" fill="url(#paint0_linear_22_431)"/>
<path d="M41.9972 2.24131e-07L15.0548 26.7699L11.456 23.1805L34.6974 1.28941e-07L41.9972 2.24131e-07Z" fill="white"/>
<path d="M49.1245 0.0109554L13.5495 35.4146L9.95074 31.8253L41.8487 0.0109554H49.1245Z" fill="url(#paint1_linear_22_431)"/>
<path d="M9.95057 31.8224L9.95057 36.8985L46.689 36.8985V31.8224L9.95057 31.8224Z" fill="url(#paint2_linear_22_431)"/>
<path d="M34.7214 0L8.63716 26.0596L5.03838 22.4703L27.5677 0H34.7214Z" fill="url(#paint3_linear_22_431)"/>
<path d="M5.03849 27.5464L5.03838 22.4703L27.8296 22.4703L27.8295 27.5464L5.03849 27.5464Z" fill="url(#paint4_linear_22_431)"/>
<path fill-rule="evenodd" clip-rule="evenodd" d="M70.114 14.9495C68.717 15.0906 67.8355 15.4641 66.9678 16.2821C65.5367 17.6316 64.8844 19.6331 65.3063 21.3809C65.5953 22.5778 65.9899 23.3188 66.776 24.1408C67.4371 24.8319 68.1663 25.2469 69.3784 25.6219C69.8236 25.7597 69.8701 25.7607 77.5344 25.796C86.1726 25.8357 85.5848 25.8011 86.2229 26.3075C86.8442 26.8006 87.082 27.5955 86.8305 28.3381C86.6807 28.7805 86.131 29.3232 85.6259 29.5274L85.2425 29.6823L75.6153 29.7144C70.143 29.7327 65.9329 29.7715 65.8601 29.8042C65.3038 30.0551 65.1245 30.44 65.1245 31.3842C65.1245 32.4874 65.3526 32.9055 66.0353 33.0537C66.2812 33.107 69.0448 33.1206 76.287 33.1044C87.4042 33.0795 86.5215 33.119 87.5118 32.6017C88.7545 31.9525 89.7693 30.7504 90.2472 29.3612C90.414 28.8763 90.424 28.7841 90.424 27.7233C90.424 26.627 90.419 26.5855 90.2241 26.0387C89.9473 25.2617 89.5836 24.6771 88.9768 24.0334C88.3603 23.3795 87.7149 22.9295 86.9894 22.6478C85.9914 22.2602 86.1859 22.2686 78.1378 22.2661C73.1246 22.2646 70.6562 22.2416 70.3977 22.1941C69.3307 21.9979 68.6432 21.1692 68.7227 20.175C68.7954 19.2657 69.5026 18.5354 70.4928 18.3469C70.7144 18.3047 74.1076 18.2815 80.1178 18.2813C86.3979 18.2811 89.4786 18.2592 89.6421 18.2136C89.9734 18.1212 90.2909 17.8242 90.3809 17.5226C90.4222 17.3843 90.456 16.9411 90.456 16.5376C90.456 15.9034 90.4364 15.7656 90.312 15.5211C90.085 15.075 89.9207 14.9912 89.1624 14.9342C88.2655 14.8667 70.7938 14.8809 70.114 14.9495ZM100.829 14.9423C100.443 15.0242 100.175 15.1958 100.021 15.4578C99.8933 15.6769 99.891 15.7768 99.874 21.7669C99.8553 28.3747 99.8618 28.5281 100.207 29.6265C100.649 31.0293 102.109 32.4521 103.588 32.9202L104.113 33.0865H112.493C121.855 33.0865 121.164 33.119 122.153 32.6326C123.475 31.9822 124.637 30.5767 124.965 29.2327C125.155 28.4482 125.176 27.5718 125.144 21.6908C125.108 15.2365 125.124 15.4986 124.743 15.1768C124.488 14.9611 124.223 14.9097 123.368 14.9097C122.504 14.9098 122.213 15.0289 122.001 15.4695C121.871 15.7406 121.869 15.8311 121.848 21.7179C121.828 27.1545 121.817 27.721 121.717 28.0225C121.493 28.6973 120.914 29.3146 120.265 29.5692C119.998 29.6742 119.471 29.6834 112.756 29.6999C108.272 29.7109 105.407 29.694 105.198 29.6552C104.442 29.5148 103.83 29.0505 103.516 28.3782L103.346 28.0124L103.314 21.8785L103.282 15.7446L103.14 15.4784C102.926 15.0774 102.579 14.9334 101.76 14.9054C101.4 14.8931 100.982 14.9097 100.829 14.9423ZM135.34 14.9712C135.016 15.0872 134.812 15.2874 134.689 15.6099C134.6 15.844 134.591 16.5889 134.609 22.2961C134.629 28.6496 134.631 28.7242 134.767 29.2099C135.18 30.6772 136.248 31.9577 137.649 32.6623C138.547 33.1145 137.797 33.0865 148.987 33.0865H159.062L159.286 32.9464C159.679 32.7002 159.761 32.4813 159.787 31.6071C159.813 30.7417 159.747 30.395 159.503 30.1038C159.162 29.6963 159.632 29.7144 149.432 29.7144C143.439 29.7144 140.056 29.6915 139.834 29.6493C139.074 29.5044 138.503 29.0503 138.155 28.3143L137.952 27.8839L137.92 21.7822C137.891 16.1487 137.88 15.6648 137.777 15.4767C137.64 15.2244 137.391 15.0424 137.057 14.9494C136.701 14.8505 135.639 14.864 135.34 14.9712ZM206.471 14.9678C206.13 15.0952 205.882 15.3529 205.795 15.6699C205.742 15.8656 205.727 18.1413 205.74 24.1586C205.758 32.2472 205.761 32.3835 205.887 32.5985C206.102 32.9666 206.415 33.0824 207.264 33.1086C207.706 33.1222 208.114 33.1008 208.283 33.0549C208.637 32.9592 208.956 32.6457 209.048 32.3023C209.098 32.1161 209.114 29.6691 209.102 23.8921C209.085 15.7767 209.085 15.7436 208.952 15.4877C208.866 15.3223 208.718 15.1745 208.536 15.0726C208.287 14.9334 208.162 14.9121 207.486 14.895C206.935 14.8811 206.649 14.9016 206.471 14.9678ZM171.44 15.0255C170.896 15.1513 170.502 15.3839 170.097 15.818C169.675 16.2711 169.436 16.7306 169.335 17.2819C169.287 17.5432 169.265 19.9554 169.265 24.9597V32.2564L169.409 32.5415C169.633 32.9858 169.859 33.0821 170.738 33.1088C171.538 33.1332 171.899 33.0684 172.175 32.8507C172.573 32.5363 172.556 32.7785 172.591 26.8148C172.622 21.583 172.628 21.373 172.745 21.2429C172.828 21.151 172.944 21.1078 173.108 21.1078C173.469 21.1078 173.672 21.348 174.573 22.8419C176.805 26.5431 179.465 30.8623 179.961 31.5902C180.734 32.7254 181.448 33.1144 182.766 33.1175C183.852 33.12 184.379 32.9157 185.07 32.2232C185.725 31.5678 185.81 31.4379 188.614 26.792C189.254 25.7322 190.008 24.5039 190.29 24.0623C190.572 23.6207 190.997 22.927 191.235 22.5208C191.796 21.5641 191.918 21.4059 192.202 21.2706C192.388 21.1818 192.469 21.1733 192.592 21.2296C192.937 21.3873 192.933 21.3196 192.934 26.9024C192.934 30.4473 192.956 32.1381 193.004 32.3127C193.094 32.6374 193.412 32.9572 193.736 33.0474C194.11 33.1516 195.218 33.1361 195.603 33.0212C195.981 32.9088 196.222 32.661 196.324 32.283C196.37 32.1116 196.385 29.7116 196.373 24.7551L196.355 17.4788L196.18 16.9607C195.871 16.0438 195.291 15.4145 194.489 15.1248C194.206 15.0224 193.963 14.9896 193.477 14.9885C192.726 14.9867 192.316 15.1154 191.763 15.5264C191.146 15.9859 190.876 16.3948 187.291 22.296C186.797 23.1085 186.128 24.1924 185.804 24.7046C185.481 25.2168 184.872 26.2098 184.453 26.9112C183.365 28.7292 183.075 29.0157 182.55 28.7903C182.173 28.6283 182.015 28.3963 179.897 24.8973C179.351 23.9965 178.271 22.2334 177.496 20.9793C176.722 19.7252 175.785 18.2078 175.415 17.6073C174.344 15.8659 173.92 15.406 173.131 15.1277C172.675 14.9668 171.897 14.9198 171.44 15.0255Z" fill="url(#paint5_linear_22_431)"/>
<defs>
<linearGradient id="paint0_linear_22_431" x1="24.6245" y1="0" x2="24.6245" y2="48" gradientUnits="userSpaceOnUse">
<stop stop-color="#A43837"/>
<stop offset="1" stop-color="#3E1515"/>
</linearGradient>
<linearGradient id="paint1_linear_22_431" x1="24.3608" y1="-0.0467504" x2="24.3608" y2="48" gradientUnits="userSpaceOnUse">
<stop stop-color="#598B57"/>
<stop offset="1" stop-color="#285A26"/>
</linearGradient>
<linearGradient id="paint2_linear_22_431" x1="24.6245" y1="0" x2="24.6245" y2="48" gradientUnits="userSpaceOnUse">
<stop stop-color="#598B57"/>
<stop offset="1" stop-color="#285A26"/>
</linearGradient>
<linearGradient id="paint3_linear_22_431" x1="24.6242" y1="-2.80966" x2="24.6242" y2="48" gradientUnits="userSpaceOnUse">
<stop stop-color="#A43837"/>
<stop offset="1" stop-color="#3E1515"/>
</linearGradient>
<linearGradient id="paint4_linear_22_431" x1="5.03846" y1="25.0083" x2="27.8295" y2="25.0083" gradientUnits="userSpaceOnUse">
<stop stop-color="#A43837"/>
<stop offset="1" stop-color="#3E1515"/>
</linearGradient>
<linearGradient id="paint5_linear_22_431" x1="137.115" y1="14.8824" x2="137.115" y2="33.1175" gradientUnits="userSpaceOnUse">
<stop stop-color="#181C21"/>
<stop offset="1"/>
</linearGradient>
</defs>
</svg>
