<svg width="210" height="49" viewBox="0 0 210 49" fill="none" xmlns="http://www.w3.org/2000/svg">
<path d="M0.124512 48.7827L24.2307 24.7398L27.8295 28.3291L7.32208 48.7827H0.124512Z" fill="url(#paint0_linear_22_370)"/>
<path d="M41.9972 0.782715L15.0548 27.5526L11.456 23.9632L34.6974 0.782715L41.9972 0.782715Z" fill="white"/>
<path d="M49.1245 0.79367L13.5495 36.1973L9.95074 32.608L41.8487 0.79367H49.1245Z" fill="url(#paint1_linear_22_370)"/>
<path d="M9.95057 32.6051L9.95057 37.6812L46.689 37.6812V32.6051L9.95057 32.6051Z" fill="url(#paint2_linear_22_370)"/>
<path d="M34.7214 0.782715L8.63716 26.8423L5.03838 23.253L27.5677 0.782715H34.7214Z" fill="url(#paint3_linear_22_370)"/>
<path d="M5.03849 28.3291L5.03838 23.253L27.8296 23.253L27.8295 28.3291L5.03849 28.3291Z" fill="url(#paint4_linear_22_370)"/>
<path fill-rule="evenodd" clip-rule="evenodd" d="M70.114 15.7323C68.717 15.8734 67.8355 16.2468 66.9678 17.0648C65.5367 18.4143 64.8844 20.4158 65.3063 22.1636C65.5953 23.3605 65.9899 24.1016 66.776 24.9235C67.4371 25.6146 68.1663 26.0296 69.3784 26.4046C69.8236 26.5424 69.8701 26.5434 77.5344 26.5787C86.1726 26.6184 85.5848 26.5838 86.2229 27.0902C86.8442 27.5833 87.082 28.3782 86.8305 29.1209C86.6807 29.5632 86.131 30.1059 85.6259 30.3101L85.2425 30.465L75.6153 30.4972C70.143 30.5154 65.9329 30.5542 65.8601 30.587C65.3038 30.8378 65.1245 31.2227 65.1245 32.1669C65.1245 33.2701 65.3526 33.6882 66.0353 33.8364C66.2812 33.8897 69.0448 33.9034 76.287 33.8871C87.4042 33.8622 86.5215 33.9017 87.5118 33.3844C88.7545 32.7352 89.7693 31.5331 90.2472 30.1439C90.414 29.659 90.424 29.5668 90.424 28.5061C90.424 27.4097 90.419 27.3682 90.2241 26.8214C89.9473 26.0444 89.5836 25.4598 88.9768 24.8161C88.3603 24.1623 87.7149 23.7122 86.9894 23.4305C85.9914 23.0429 86.1859 23.0513 78.1378 23.0488C73.1246 23.0473 70.6562 23.0243 70.3977 22.9768C69.3307 22.7806 68.6432 21.9519 68.7227 20.9577C68.7954 20.0484 69.5026 19.3182 70.4928 19.1296C70.7144 19.0874 74.1076 19.0643 80.1178 19.064C86.3979 19.0638 89.4786 19.0419 89.6421 18.9963C89.9734 18.9039 90.2909 18.607 90.3809 18.3053C90.4222 18.167 90.456 17.7238 90.456 17.3203C90.456 16.6861 90.4364 16.5483 90.312 16.3038C90.085 15.8577 89.9207 15.7739 89.1624 15.7169C88.2655 15.6495 70.7938 15.6636 70.114 15.7323ZM100.829 15.725C100.443 15.807 100.175 15.9785 100.021 16.2406C99.8933 16.4596 99.891 16.5595 99.874 22.5496C99.8553 29.1574 99.8618 29.3108 100.207 30.4092C100.649 31.8121 102.109 33.2348 103.588 33.703L104.113 33.8692H112.493C121.855 33.8692 121.164 33.9017 122.153 33.4153C123.475 32.765 124.637 31.3594 124.965 30.0154C125.155 29.231 125.176 28.3545 125.144 22.4735C125.108 16.0192 125.124 16.2813 124.743 15.9595C124.488 15.7438 124.223 15.6924 123.368 15.6924C122.504 15.6926 122.213 15.8116 122.001 16.2523C121.871 16.5234 121.869 16.6139 121.848 22.5006C121.828 27.9373 121.817 28.5037 121.717 28.8052C121.493 29.48 120.914 30.0973 120.265 30.3519C119.998 30.457 119.471 30.4661 112.756 30.4826C108.272 30.4936 105.407 30.4767 105.198 30.4379C104.442 30.2975 103.83 29.8332 103.516 29.1609L103.346 28.7951L103.314 22.6612L103.282 16.5273L103.14 16.2611C102.926 15.8601 102.579 15.7161 101.76 15.6881C101.4 15.6759 100.982 15.6924 100.829 15.725ZM135.34 15.754C135.016 15.87 134.812 16.0701 134.689 16.3926C134.6 16.6267 134.591 17.3716 134.609 23.0788C134.629 29.4323 134.631 29.5069 134.767 29.9926C135.18 31.46 136.248 32.7404 137.649 33.445C138.547 33.8973 137.797 33.8692 148.987 33.8692H159.062L159.286 33.7291C159.679 33.4829 159.761 33.264 159.787 32.3898C159.813 31.5244 159.747 31.1777 159.503 30.8865C159.162 30.479 159.632 30.4972 149.432 30.4972C143.439 30.4972 140.056 30.4742 139.834 30.432C139.074 30.2871 138.503 29.833 138.155 29.097L137.952 28.6666L137.92 22.5649C137.891 16.9314 137.88 16.4475 137.777 16.2594C137.64 16.0072 137.391 15.8251 137.057 15.7321C136.701 15.6332 135.639 15.6467 135.34 15.754ZM206.471 15.7506C206.13 15.8779 205.882 16.1356 205.795 16.4526C205.742 16.6484 205.727 18.9241 205.74 24.9414C205.758 33.0299 205.761 33.1662 205.887 33.3812C206.102 33.7493 206.415 33.8651 207.264 33.8913C207.706 33.9049 208.114 33.8835 208.283 33.8377C208.637 33.7419 208.956 33.4284 209.048 33.085C209.098 32.8988 209.114 30.4518 209.102 24.6749C209.085 16.5595 209.085 16.5263 208.952 16.2704C208.866 16.105 208.718 15.9572 208.536 15.8553C208.287 15.7161 208.162 15.6948 207.486 15.6777C206.935 15.6638 206.649 15.6843 206.471 15.7506ZM171.44 15.8082C170.896 15.9341 170.502 16.1666 170.097 16.6007C169.675 17.0538 169.436 17.5133 169.335 18.0646C169.287 18.3259 169.265 20.7381 169.265 25.7424V33.0391L169.409 33.3242C169.633 33.7685 169.859 33.8648 170.738 33.8915C171.538 33.9159 171.899 33.8511 172.175 33.6334C172.573 33.319 172.556 33.5612 172.591 27.5975C172.622 22.3657 172.628 22.1557 172.745 22.0256C172.828 21.9337 172.944 21.8905 173.108 21.8905C173.469 21.8905 173.672 22.1307 174.573 23.6247C176.805 27.3259 179.465 31.645 179.961 32.3729C180.734 33.5081 181.448 33.8971 182.766 33.9002C183.852 33.9027 184.379 33.6984 185.07 33.0059C185.725 32.3505 185.81 32.2206 188.614 27.5747C189.254 26.515 190.008 25.2866 190.29 24.845C190.572 24.4034 190.997 23.7098 191.235 23.3035C191.796 22.3468 191.918 22.1886 192.202 22.0534C192.388 21.9645 192.469 21.956 192.592 22.0123C192.937 22.1701 192.933 22.1024 192.934 27.6851C192.934 31.23 192.956 32.9208 193.004 33.0954C193.094 33.4201 193.412 33.74 193.736 33.8301C194.11 33.9343 195.218 33.9188 195.603 33.8039C195.981 33.6915 196.222 33.4437 196.324 33.0657C196.37 32.8943 196.385 30.4943 196.373 25.5378L196.355 18.2615L196.18 17.7434C195.871 16.8265 195.291 16.1972 194.489 15.9075C194.206 15.8051 193.963 15.7723 193.477 15.7712C192.726 15.7694 192.316 15.8981 191.763 16.3091C191.146 16.7686 190.876 17.1775 187.291 23.0787C186.797 23.8912 186.128 24.9751 185.804 25.4873C185.481 25.9995 184.872 26.9925 184.453 27.6939C183.365 29.5119 183.075 29.7984 182.55 29.573C182.173 29.4111 182.015 29.1791 179.897 25.68C179.351 24.7792 178.271 23.0161 177.496 21.762C176.722 20.5079 175.785 18.9905 175.415 18.39C174.344 16.6486 173.92 16.1887 173.131 15.9104C172.675 15.7495 171.897 15.7025 171.44 15.8082Z" fill="white"/>
<defs>
<linearGradient id="paint0_linear_22_370" x1="24.6245" y1="0.782715" x2="24.6245" y2="48.7827" gradientUnits="userSpaceOnUse">
<stop stop-color="#A43837"/>
<stop offset="1" stop-color="#3E1515"/>
</linearGradient>
<linearGradient id="paint1_linear_22_370" x1="24.3608" y1="0.735964" x2="24.3608" y2="48.7828" gradientUnits="userSpaceOnUse">
<stop stop-color="#598B57"/>
<stop offset="1" stop-color="#285A26"/>
</linearGradient>
<linearGradient id="paint2_linear_22_370" x1="24.6245" y1="0.782715" x2="24.6245" y2="48.7827" gradientUnits="userSpaceOnUse">
<stop stop-color="#598B57"/>
<stop offset="1" stop-color="#285A26"/>
</linearGradient>
<linearGradient id="paint3_linear_22_370" x1="24.6242" y1="-2.02695" x2="24.6242" y2="48.7828" gradientUnits="userSpaceOnUse">
<stop stop-color="#A43837"/>
<stop offset="1" stop-color="#3E1515"/>
</linearGradient>
<linearGradient id="paint4_linear_22_370" x1="5.03846" y1="25.7911" x2="27.8295" y2="25.7911" gradientUnits="userSpaceOnUse">
<stop stop-color="#A43837"/>
<stop offset="1" stop-color="#3E1515"/>
</linearGradient>
</defs>
</svg>
